<?xml version="1.0" standalone="no"?>
<!DOCTYPE svg PUBLIC "-//W3C//DTD SVG 20010904//EN"
 "http://www.w3.org/TR/2001/REC-SVG-20010904/DTD/svg10.dtd">
<svg version="1.0" xmlns="http://www.w3.org/2000/svg"
 width="948.000000pt" height="720.000000pt" viewBox="0 0 948.000000 720.000000"
 preserveAspectRatio="xMidYMid meet">

<g transform="translate(0.000000,720.000000) scale(0.100000,-0.100000)"
fill="#000000" stroke="none">
<path d="M3098 7157 c-187 -215 -259 -487 -274 -1052 -6 -210 -9 -244 -25
-271 -13 -22 -19 -50 -19 -93 0 -55 -3 -65 -27 -88 -118 -110 -351 -213 -480
-213 -36 0 -44 -3 -41 -17 7 -35 234 -103 345 -103 41 0 49 -15 56 -110 8 -94
23 -140 47 -140 13 0 20 11 25 38 8 46 60 181 79 207 11 16 13 -3 9 -131 -4
-160 -18 -268 -37 -282 -6 -5 -54 -15 -106 -21 -52 -7 -126 -19 -165 -27 -38
-8 -106 -21 -150 -29 -44 -8 -131 -31 -194 -51 -137 -44 -175 -73 -195 -148
-25 -90 -55 -418 -57 -621 -1 -55 -4 -111 -8 -125 -4 -15 -39 -50 -87 -87 -44
-34 -109 -94 -145 -133 -35 -39 -105 -115 -154 -168 -50 -53 -105 -116 -124
-139 -18 -24 -39 -43 -47 -43 -7 0 -28 26 -46 58 -77 136 -279 281 -458 327
-88 23 -223 19 -348 -9 -166 -38 -285 -102 -419 -229 l-53 -50 0 -86 c0 -79 1
-84 14 -60 27 52 117 164 167 206 87 74 213 121 295 109 65 -9 84 -21 84 -57
0 -51 -22 -81 -119 -159 -23 -19 -50 -42 -60 -50 -36 -32 -93 -130 -135 -233
-69 -168 -115 -214 -203 -204 l-43 5 0 -298 0 -297 53 -50 c65 -61 184 -127
268 -149 65 -17 161 -14 198 5 10 6 31 38 46 73 25 55 29 77 32 178 5 149 7
160 38 160 47 0 74 38 92 128 l16 82 39 6 c40 7 86 50 120 113 16 29 20 31 58
25 40 -7 41 -6 111 70 51 54 79 76 96 76 33 0 84 -23 107 -48 18 -21 18 -22
-3 -62 -24 -46 -27 -87 -9 -125 10 -22 8 -29 -16 -54 -21 -22 -28 -39 -28 -68
1 -38 0 -39 -70 -73 -95 -46 -113 -72 -113 -160 0 -84 18 -108 115 -154 58
-27 74 -31 155 -30 197 1 337 104 427 314 29 69 32 84 31 180 0 122 -17 179
-82 279 -46 72 -49 81 -22 81 49 0 89 60 121 185 12 44 27 88 35 99 14 18 16
18 62 -12 26 -17 63 -47 82 -66 l34 -35 -13 -70 c-19 -102 -10 -118 98 -170
48 -22 93 -41 100 -41 30 0 7 -16 -39 -27 -61 -15 -78 -27 -96 -70 -17 -43
-17 -85 3 -126 18 -38 23 -25 -84 -217 -85 -152 -179 -478 -169 -586 9 -95 46
-191 108 -283 68 -99 185 -230 248 -278 25 -19 67 -50 94 -70 26 -19 47 -39
47 -44 0 -5 -14 -31 -31 -59 -25 -40 -30 -57 -25 -84 7 -34 54 -90 116 -137
l34 -26 -13 -54 c-48 -196 -48 -226 -4 -255 15 -9 49 -19 77 -23 42 -5 52 -10
54 -27 2 -12 -9 -35 -23 -53 -25 -28 -32 -31 -88 -31 -80 -1 -133 -25 -182
-83 -36 -43 -39 -45 -107 -51 -95 -9 -120 -23 -160 -95 -11 -19 -29 -33 -52
-39 -20 -6 -67 -33 -105 -61 -38 -27 -86 -57 -105 -65 -27 -11 -41 -26 -55
-59 -18 -41 -22 -44 -72 -54 -54 -10 -53 -10 41 -12 l96 -1 -1 26 c-1 84 193
89 377 10 70 -30 95 -36 153 -36 l70 1 -40 36 c-22 19 -64 53 -93 75 -37 27
-59 54 -73 84 -17 42 -18 48 -3 76 15 29 18 30 72 26 32 -2 78 -14 103 -26 25
-12 48 -22 52 -22 9 0 -3 59 -20 97 -9 18 -13 39 -10 47 6 16 16 18 174 37
124 15 138 22 101 50 -60 45 -18 85 106 100 78 10 212 -3 281 -28 64 -22 135
-103 91 -103 -25 0 -60 -36 -53 -54 6 -15 8 -16 31 0 14 8 30 13 35 10 6 -4
27 -7 48 -7 59 -1 138 -26 172 -55 38 -31 38 -40 5 -67 -25 -19 -26 -21 -8
-34 29 -21 90 -16 114 9 33 36 26 68 -27 119 -48 46 -93 65 -176 76 -27 4 -43
13 -59 37 -12 17 -32 43 -46 58 -24 26 -24 26 -4 37 12 6 31 11 44 11 44 0
199 -47 221 -67 12 -12 45 -32 72 -46 66 -34 147 -113 143 -141 -3 -24 5 -24
89 -5 45 11 57 10 92 -5 22 -10 52 -31 67 -47 26 -28 27 -29 10 -48 -10 -11
-32 -21 -49 -23 -70 -7 -31 -58 44 -58 43 0 55 5 81 30 25 26 30 37 25 64 -3
18 -18 52 -34 74 -38 56 -87 75 -187 73 l-78 -2 -44 44 c-52 53 -56 80 -14
102 57 29 146 30 235 1 83 -27 180 -90 180 -116 0 -8 -21 -25 -47 -38 -52 -24
-56 -32 -31 -57 12 -13 28 -16 60 -12 88 10 106 65 51 157 -29 49 -42 60 -113
95 -78 38 -83 39 -175 38 -112 -2 -215 -20 -231 -39 -17 -21 -57 -17 -106 12
-51 30 -48 44 10 44 27 0 64 11 102 30 62 31 121 38 155 20 10 -6 60 -21 109
-34 104 -28 176 -60 277 -122 39 -24 76 -44 82 -44 26 0 9 44 -35 93 -47 51
-53 56 -82 76 -12 8 -12 17 2 65 16 59 18 56 -28 94 -31 27 34 77 113 87 48 6
64 -5 66 -45 1 -17 8 -35 16 -40 29 -15 60 -21 60 -11 0 5 -9 13 -20 16 -18 6
-36 47 -31 71 1 6 38 8 96 5 8 -1 21 -14 30 -30 13 -26 20 -29 57 -28 46 1
158 -30 158 -44 0 -5 -14 -9 -30 -9 -55 0 -97 -24 -110 -64 -10 -33 -9 -42 12
-84 20 -42 32 -52 106 -89 83 -43 162 -65 162 -45 0 5 -21 20 -47 32 -111 51
-136 66 -164 98 -16 18 -29 39 -29 46 0 36 59 50 148 36 64 -11 70 -14 134
-77 37 -37 72 -79 79 -95 15 -37 39 -37 39 1 0 57 -45 135 -100 176 -28 21
-55 48 -60 60 -7 18 -27 28 -85 46 -42 12 -80 29 -83 37 -3 8 8 40 25 71 30
55 48 68 48 33 0 -27 14 -42 38 -42 20 1 21 2 5 14 -24 18 -12 26 36 26 49 0
71 -12 63 -34 -10 -25 28 -20 46 7 l14 22 51 -47 c54 -51 76 -59 86 -32 8 20
-31 82 -56 90 -19 6 -25 24 -8 24 5 0 19 -4 32 -9 13 -5 56 -19 96 -32 39 -12
72 -27 73 -33 0 -6 0 -29 -1 -51 -1 -47 14 -65 100 -115 59 -35 152 -64 238
-76 66 -8 70 9 5 26 -107 27 -253 103 -274 142 -14 27 2 43 59 62 26 9 70 31
97 50 28 18 61 37 75 41 36 11 48 23 55 56 9 40 -9 59 -54 58 -20 -1 -28 -3
-18 -6 9 -2 17 -12 17 -22 0 -30 -79 -58 -112 -40 -15 8 -16 14 -7 30 15 28 3
36 -20 15 -25 -23 -33 -58 -21 -90 8 -22 6 -27 -13 -31 -29 -8 -144 20 -215
51 -69 30 -191 105 -215 132 -10 10 -15 26 -12 34 7 19 58 48 84 48 25 0 27
-17 5 -48 -14 -20 -14 -22 1 -22 8 0 24 5 34 12 15 9 25 7 53 -10 l35 -22 38
20 c47 24 79 25 136 4 51 -18 142 -13 188 11 16 8 50 46 75 85 33 50 53 70 69
71 60 3 110 -17 102 -42 -7 -20 36 -108 65 -134 11 -10 31 -17 44 -17 36 0 51
-21 31 -42 -9 -9 -22 -16 -29 -16 -26 0 -81 29 -94 49 -16 27 -56 27 -82 1
-30 -30 -21 -71 15 -76 10 -1 30 -14 44 -28 34 -32 41 -33 41 -1 0 16 6 25 15
25 8 0 15 4 15 10 0 6 9 6 26 0 40 -16 51 -12 84 24 33 36 66 51 76 34 14 -22
52 -26 100 -12 56 17 74 13 74 -16 0 -12 -4 -19 -8 -16 -12 7 -122 -47 -150
-73 l-22 -22 19 -37 c22 -42 44 -58 94 -67 23 -5 37 -3 42 6 8 13 -1 22 -55
52 -45 24 -27 41 66 62 86 19 140 11 229 -32 52 -26 155 -118 155 -139 0 -7
-12 -22 -26 -33 -21 -17 -24 -24 -15 -35 7 -8 26 -18 44 -22 68 -15 87 75 32
158 -26 39 -130 116 -174 127 -34 10 -33 21 7 65 l32 35 55 -32 c53 -31 132
-90 180 -133 64 -58 145 -215 124 -240 -5 -7 -35 -15 -67 -19 -34 -4 -90 -23
-138 -46 -44 -21 -86 -39 -93 -39 -20 0 -71 -30 -71 -42 0 -12 1 -11 255 20
88 11 166 15 210 11 115 -11 200 -64 235 -149 18 -44 9 -55 -82 -104 l-75 -41
-89 42 c-98 45 -145 57 -186 45 l-28 -7 34 -27 c19 -15 56 -39 83 -54 81 -46
168 -130 220 -215 44 -72 51 -78 81 -79 31 0 32 1 32 40 0 34 4 42 26 50 83
32 285 -21 269 -70 -5 -17 10 -18 254 -19 l260 -1 63 36 c123 70 219 100 348
110 113 8 136 -1 142 -58 3 -24 1 -53 -3 -65 -8 -21 -6 -23 31 -23 34 0 41 4
46 25 7 30 28 28 32 -3 3 -18 10 -22 43 -22 44 0 50 14 24 64 -20 38 -19 42
12 82 31 41 97 77 170 93 62 13 269 6 310 -10 15 -6 51 -17 79 -24 65 -15 137
-57 166 -95 12 -17 25 -30 30 -30 15 0 8 34 -13 69 -28 47 -20 61 38 61 46 0
89 17 68 26 -45 20 -60 33 -63 53 -2 13 2 27 9 32 10 6 11 13 1 31 -6 13 -11
37 -9 53 2 24 7 30 25 28 12 -2 22 1 22 6 0 5 8 7 19 4 12 -3 24 3 34 17 14
20 19 21 81 12 64 -8 66 -8 66 14 0 12 -4 24 -8 26 -5 2 -25 28 -45 58 -20 30
-42 61 -48 68 -6 7 -13 28 -16 46 -4 27 5 54 46 137 29 56 50 108 47 114 -2 7
-25 16 -50 19 -38 6 -51 3 -85 -20 -42 -27 -72 -33 -106 -19 -11 4 -17 4 -13
0 5 -5 -1 -14 -11 -21 -11 -8 -27 -40 -36 -71 -10 -32 -26 -76 -36 -99 -11
-22 -19 -46 -19 -53 0 -14 -26 -57 -53 -88 -10 -12 -16 -26 -13 -31 3 -5 -1
-15 -9 -22 -8 -7 -15 -18 -15 -24 0 -6 -25 -36 -55 -66 -30 -29 -55 -62 -55
-71 0 -14 -13 -18 -72 -23 -40 -4 -82 -6 -93 -5 -11 1 -46 -6 -79 -16 -49 -14
-60 -15 -67 -4 -5 8 -7 16 -6 19 39 73 107 218 107 228 0 16 -38 16 -53 0 -7
-7 -20 -26 -30 -41 -24 -38 -41 -24 -20 16 23 46 63 204 63 253 0 32 5 45 22
56 20 13 22 25 27 149 8 217 7 232 -28 289 -17 28 -31 55 -31 60 0 6 -19 50
-41 98 -32 67 -51 95 -85 121 -25 19 -47 31 -50 28 -8 -7 18 -67 28 -67 5 0 8
-6 8 -13 0 -8 9 -22 21 -33 12 -10 27 -31 35 -46 7 -14 21 -34 31 -43 21 -22
31 -95 32 -235 1 -154 -7 -210 -31 -210 -11 0 -16 5 -13 10 3 6 2 10 -4 10
-26 0 -21 -26 12 -56 34 -32 35 -36 25 -67 -6 -17 -14 -36 -18 -42 -4 -5 -10
-28 -14 -50 -10 -58 -47 -133 -69 -139 -10 -2 -16 -9 -13 -15 7 -11 -13 -61
-24 -61 -4 0 -10 -14 -14 -30 -3 -17 -23 -48 -43 -70 -21 -21 -50 -53 -65 -69
-15 -17 -32 -31 -38 -31 -5 0 -10 -7 -10 -16 0 -8 -13 -29 -29 -45 l-29 -29
-91 9 c-50 4 -100 15 -113 23 -13 8 -27 16 -33 18 -5 1 -21 10 -35 19 -14 9
-37 23 -52 30 -15 8 -30 22 -33 31 -3 9 -25 26 -50 38 -30 14 -45 28 -45 41 0
21 -18 31 -58 31 -15 0 -40 7 -57 16 -62 34 -105 54 -122 57 -10 2 -38 9 -62
16 -33 9 -51 10 -68 2 -13 -6 -33 -11 -43 -11 -26 0 -26 -26 1 -40 31 -17 23
-75 -10 -75 -18 0 -27 9 -40 43 -17 43 -31 47 -31 7 0 -29 -9 -36 -32 -24 -14
8 -29 4 -66 -17 -50 -28 -99 -28 -106 -1 -2 7 -18 57 -35 112 -36 114 -37 125
-16 166 11 21 13 34 6 47 -8 13 -10 13 -11 3 0 -12 -2 -13 -12 -2 -19 18 -18
394 0 437 7 17 14 47 15 67 1 19 5 33 8 31 3 -2 25 38 48 89 57 124 175 359
212 425 17 30 28 57 24 60 -15 15 -127 -117 -175 -207 -27 -52 -50 -97 -50
-102 0 -4 -13 -37 -30 -72 -16 -36 -30 -74 -30 -85 0 -11 -7 -33 -15 -48 -9
-17 -13 -40 -9 -56 3 -15 -2 -51 -10 -80 -9 -29 -18 -75 -21 -101 -6 -47 -7
-49 -33 -42 -15 4 -37 8 -49 10 -13 1 -31 11 -40 22 -10 11 -47 30 -83 42 -36
12 -74 27 -85 32 -11 5 -36 9 -55 8 -19 0 -47 2 -62 6 -23 6 -28 4 -28 -12 0
-10 5 -24 11 -30 6 -6 8 -20 5 -31 -7 -22 -55 -34 -80 -20 -9 5 -16 5 -16 1 0
-14 60 -45 76 -39 7 3 14 1 14 -4 0 -6 -3 -10 -7 -10 -5 -1 -27 -5 -50 -9 -33
-6 -43 -5 -43 5 0 20 -21 28 -31 13 -6 -10 -11 -11 -16 -3 -5 6 -16 13 -25 17
-15 5 -16 11 -8 32 13 33 13 44 0 25 -5 -8 -10 -10 -10 -4 0 16 -79 66 -95 60
-19 -7 -25 16 -25 87 0 76 -9 107 -73 247 -64 140 -201 245 -370 284 -38 9
-85 16 -107 16 -22 0 -40 5 -43 13 -3 8 23 43 58 80 55 58 70 68 133 87 39 12
76 19 82 15 6 -4 22 -25 37 -48 59 -96 189 -187 328 -230 115 -36 121 -39 117
-71 -3 -31 13 -34 28 -6 6 11 17 20 25 20 8 0 15 9 15 20 0 12 12 26 32 36 46
24 188 23 254 -1 53 -19 84 -16 84 8 0 9 -33 26 -82 44 l-83 30 -21 58 c-13
38 -38 76 -67 107 -26 27 -47 56 -47 63 0 8 -9 17 -20 20 -38 12 -21 26 23 20
33 -5 46 -3 56 9 23 27 5 43 -59 54 -114 21 -300 116 -300 155 0 17 207 -2
267 -25 73 -27 152 -91 160 -129 7 -37 38 -57 51 -33 5 8 6 36 2 61 -7 47 -35
79 -92 105 -76 35 26 53 122 22 59 -19 101 -15 58 6 -32 15 -35 25 -12 34 11
4 32 -8 63 -37 44 -41 49 -43 114 -45 99 -4 143 11 201 69 42 41 55 49 75 44
14 -4 50 -11 81 -17 59 -11 173 -59 202 -85 32 -28 30 -7 -3 42 -44 66 -146
115 -236 115 -44 0 -63 4 -63 13 0 6 -14 42 -32 79 -24 48 -39 67 -53 67 -10
1 -39 8 -62 17 -24 9 -46 15 -48 12 -11 -10 6 -33 35 -50 40 -23 38 -44 -8
-87 -53 -50 -97 -62 -250 -68 l-132 -5 -40 40 c-30 29 -40 48 -40 71 0 24 -4
31 -19 31 -36 0 -43 -70 -11 -110 11 -14 20 -30 20 -36 0 -6 -27 -20 -60 -31
-56 -18 -66 -19 -172 -6 -196 24 -274 5 -309 -74 -13 -31 -24 -43 -39 -43 -57
0 -112 -58 -114 -119 -1 -33 -3 -36 -56 -51 -69 -21 -180 -70 -180 -81 0 -4
-15 -17 -34 -29 -30 -18 -49 -21 -133 -19 -164 2 -336 -50 -369 -113 -12 -23
-18 -27 -33 -18 -27 14 -115 81 -123 94 -4 6 -8 41 -8 78 0 112 -20 217 -66
354 l-44 132 21 47 c42 94 22 147 -68 181 -41 16 -47 23 -85 103 -44 93 -78
170 -78 177 0 2 12 -1 26 -6 14 -6 41 -10 61 -10 20 0 53 -5 74 -11 32 -10 46
-9 83 5 59 22 87 58 142 174 53 114 59 172 20 197 -29 19 -52 11 -103 -37 -17
-17 -36 -27 -42 -24 -15 10 -13 64 5 111 36 93 45 144 34 184 -5 21 -17 44
-25 51 -35 29 -18 56 112 177 219 203 216 200 210 244 -5 35 1 47 54 121 101
139 98 154 -61 260 -63 42 -150 95 -193 118 -42 23 -91 53 -107 67 l-30 25 0
202 c0 209 3 226 42 226 24 0 23 20 -7 82 -42 87 -29 110 43 78 48 -22 137
-102 158 -142 25 -49 37 -34 30 37 -8 82 -40 187 -73 238 -32 50 -26 61 53
105 77 44 126 81 122 94 -2 6 -45 12 -98 13 -103 3 -180 24 -282 78 -51 26
-59 35 -68 71 -12 51 -43 108 -85 161 -29 36 -47 70 -44 85 1 3 -6 23 -16 45
-9 22 -26 73 -36 114 -11 41 -27 87 -35 102 -7 15 -14 36 -14 45 0 16 -47 113
-133 274 -71 134 -190 302 -272 385 -121 123 -303 254 -337 243 -6 -2 13 -16
42 -31 100 -52 271 -201 360 -312 129 -164 268 -413 340 -610 18 -49 36 -99
40 -110 4 -11 16 -47 25 -80 10 -33 21 -70 26 -82 6 -16 3 -22 -11 -26 -25 -6
-280 80 -304 103 -10 10 -37 75 -61 145 -24 69 -56 152 -73 183 -27 52 -30 65
-29 147 1 102 -11 135 -48 135 -13 0 -27 -4 -30 -10 -13 -20 -22 -8 -53 68
-23 56 -39 82 -57 90 -37 17 -55 -7 -55 -75 0 -48 -2 -54 -17 -48 -152 58
-326 74 -418 38 -27 -11 -72 -34 -99 -51 l-50 -32 -21 20 c-27 25 -39 25 -63
-1 l-20 -20 -32 55 c-18 32 -44 63 -61 71 -27 14 -29 14 -44 -9 -14 -21 -15
-34 -5 -85 12 -66 8 -81 -19 -81 -25 0 -41 -20 -41 -52 0 -37 20 -76 60 -113
45 -42 51 -64 34 -126 -8 -34 -14 -105 -14 -189 0 -74 -4 -140 -8 -145 -7 -11
-137 -52 -207 -66 -22 -4 -51 -11 -65 -14 -46 -10 -51 3 -51 127 1 365 56 752
129 908 50 105 123 203 196 258 l29 22 -29 -1 c-21 -1 -39 -13 -66 -42z m672
-485 c17 -17 30 -44 35 -70 4 -27 14 -46 26 -53 29 -15 59 -69 59 -106 0 -25
7 -37 28 -50 36 -23 42 -32 42 -70 0 -59 -16 -81 -77 -109 -32 -14 -78 -42
-103 -63 -64 -53 -106 -81 -122 -81 -8 0 -29 45 -53 112 -24 68 -55 132 -77
162 -27 36 -34 52 -25 58 17 10 17 98 0 98 -8 0 -18 -10 -24 -23 -6 -13 -20
-29 -31 -36 -17 -11 -23 -10 -35 2 -11 11 -13 30 -7 86 7 77 19 97 74 127 65
35 95 42 178 43 79 1 85 -1 112 -27z m136 -13 c31 -14 44 -25 40 -35 -9 -23
12 -110 40 -169 15 -30 24 -61 20 -70 -5 -14 -12 -11 -41 21 -19 21 -35 40
-36 43 -8 55 -16 72 -50 107 -30 31 -42 52 -46 83 -7 49 4 52 73 20z m-491
-273 c86 -39 120 -91 171 -259 52 -168 83 -387 99 -697 10 -190 -19 -723 -41
-749 -2 -2 -15 8 -29 23 -46 50 -105 15 -140 -81 -20 -54 -39 -73 -71 -73 -21
0 -22 5 -28 118 -16 299 -53 600 -111 907 -53 285 -58 329 -59 520 -1 176 0
181 26 230 24 46 44 64 88 78 28 10 45 7 95 -17z m770 -36 c61 -23 124 -173
149 -358 19 -133 21 -439 5 -629 -11 -132 -97 -609 -126 -697 -16 -50 -16 -50
-34 -28 -26 33 -60 28 -100 -15 -20 -21 -43 -50 -52 -65 -12 -19 -26 -28 -44
-28 -25 0 -25 1 -19 53 22 188 27 435 21 987 -6 529 -5 603 10 665 28 120 85
155 190 115z m-242 -253 c-6 -121 -9 -128 -38 -121 -14 4 -25 2 -25 -4 0 -6
-8 -8 -18 -5 -23 6 -84 -19 -135 -54 -20 -14 -39 -24 -42 -22 -2 3 -8 24 -14
48 l-10 44 62 65 c34 35 82 78 106 95 41 28 97 48 113 40 3 -1 4 -40 1 -86z
m556 -128 c58 -17 139 -46 178 -64 64 -30 75 -39 95 -79 12 -25 19 -48 16 -51
-2 -3 -34 8 -69 24 -35 15 -88 34 -118 41 -40 9 -67 25 -107 61 -29 26 -67 55
-84 64 -26 14 -41 35 -24 35 4 0 54 -14 113 -31z m-573 -27 c13 -8 29 -220 19
-251 -3 -12 -19 -22 -38 -26 -47 -10 -145 -65 -168 -93 -23 -29 -24 -26 -39
81 -22 170 -12 209 65 257 57 35 134 51 161 32z m524 -31 c47 -33 84 -107 88
-175 5 -71 -11 -96 -47 -77 -10 6 -33 8 -50 5 -28 -6 -32 -3 -46 29 -10 25
-15 71 -15 142 0 106 0 106 23 100 12 -4 33 -15 47 -24z m-1272 -27 c2 -17 -3
-35 -10 -41 -16 -12 -300 -93 -328 -93 -14 0 -20 7 -20 23 0 42 36 64 166 103
180 53 188 54 192 8z m36 -232 c2 -4 7 -24 11 -44 l7 -36 -47 10 c-58 12 -112
3 -125 -22 -17 -31 -12 -62 23 -135 19 -39 44 -101 56 -140 32 -98 73 -189
132 -291 40 -71 52 -101 59 -158 12 -89 13 -189 2 -184 -18 7 -117 124 -157
187 -61 94 -133 260 -161 370 -61 237 -36 363 84 426 46 23 106 33 116 17z
m1446 -2 c79 -18 96 -29 126 -83 29 -52 29 -53 29 -222 -1 -175 -6 -215 -65
-469 -23 -100 -72 -233 -121 -327 -37 -71 -97 -159 -108 -159 -4 0 -4 25 0 55
5 36 24 86 57 147 46 87 61 127 126 338 54 176 82 361 71 462 -9 75 -23 93
-72 92 -53 -2 -132 -45 -274 -152 l-44 -34 -6 39 c-4 21 -5 61 -2 88 5 50 6
51 65 84 l60 33 39 -18 c50 -22 63 -10 22 22 -49 38 -35 57 38 52 73 -5 77 9
11 39 -38 17 -42 21 -22 22 14 0 45 -4 70 -9z m-197 -17 c-7 -2 -19 -2 -25 0
-7 3 -2 5 12 5 14 0 19 -2 13 -5z m427 -49 c0 -8 -4 -14 -10 -14 -5 0 -10 9
-10 21 0 11 5 17 10 14 6 -3 10 -13 10 -21z m115 -12 c-3 -3 -11 0 -18 7 -9
10 -8 11 6 5 10 -3 15 -9 12 -12z m62 -68 c-3 -3 -12 -4 -19 -1 -8 3 -5 6 6 6
11 1 17 -2 13 -5z m-1297 -24 c21 -11 71 -25 109 -32 l71 -12 0 -78 c0 -43 -3
-78 -7 -78 -5 1 -55 24 -113 53 l-105 52 -3 58 c-2 31 0 57 3 57 3 0 23 -9 45
-20z m-1180 5 c0 -2 -10 -9 -22 -15 -22 -11 -22 -10 -4 4 21 17 26 19 26 11z
m163 -22 c-19 -7 -16 -23 5 -23 10 0 13 -3 6 -8 -6 -4 -14 -14 -17 -22 -4 -10
-6 -8 -6 8 -1 12 -5 22 -11 22 -5 0 -10 7 -10 15 0 9 9 15 23 14 12 0 16 -3
10 -6z m2154 -25 c-3 -7 -5 -2 -5 12 0 14 2 19 5 13 2 -7 2 -19 0 -25z m33 -8
c0 -5 -2 -10 -4 -10 -3 0 -8 5 -11 10 -3 6 -1 10 4 10 6 0 11 -4 11 -10z m17
-12 c-3 -8 -6 -5 -6 6 -1 11 2 17 5 13 3 -3 4 -12 1 -19z m-2337 -7 c0 -14
-18 -23 -31 -15 -8 4 -7 9 2 15 18 11 29 11 29 0z m1975 -210 c-42 -84 -59
-92 -50 -23 5 37 14 54 42 81 21 18 39 29 41 23 2 -6 -13 -42 -33 -81z m-210
-33 c29 -56 55 -140 55 -176 0 -18 9 -64 20 -100 30 -98 38 -236 23 -398 -20
-220 -55 -320 -129 -361 -46 -27 -81 -29 -111 -8 -28 20 -69 107 -78 166 -7
45 -6 47 35 79 36 29 41 37 36 62 -3 15 -9 42 -12 59 -4 18 4 74 19 142 34
147 62 282 82 387 16 90 37 180 41 180 1 0 10 -15 19 -32z m129 -28 c-2 -74
-4 -87 -18 -106 -14 -18 -15 -17 -30 18 -21 48 -20 87 1 110 26 29 48 19 47
-22z m-663 -21 l99 -41 0 -84 0 -84 -27 6 c-41 10 -123 47 -171 78 -40 25 -42
29 -42 74 0 62 9 92 27 92 8 0 59 -19 114 -41z m-60 -308 c20 -6 59 -34 88
-62 50 -48 52 -53 47 -92 -3 -23 -5 -45 -5 -49 -2 -14 -113 35 -132 59 -6 7
-18 13 -25 13 -8 0 -14 4 -14 8 0 5 -11 14 -25 20 -21 10 -25 18 -25 54 0 24
3 53 6 66 6 21 8 21 28 9 11 -8 37 -19 57 -26z m-207 -117 c33 -13 17 -34 -26
-34 -40 0 -41 0 -23 20 20 22 25 23 49 14z m-847 -71 c-12 -118 -57 -502 -72
-613 -9 -63 -22 -186 -29 -273 -7 -87 -16 -160 -19 -164 -11 -10 -73 44 -188
166 -123 130 -155 152 -194 131 -30 -16 -49 -71 -41 -113 l6 -32 -20 32 c-11
18 -41 43 -70 58 -31 16 -50 32 -50 43 0 51 71 359 110 481 26 82 26 85 -10
123 -31 32 -39 73 -20 108 23 44 317 105 519 109 l84 1 -6 -57z m990 27 c22
-17 23 -20 7 -21 -11 0 -27 -2 -36 -4 -18 -3 -26 24 -11 38 9 10 12 9 40 -13z
m423 -30 c0 -5 -4 -10 -10 -10 -5 0 -10 5 -10 10 0 6 5 10 10 10 6 0 10 -4 10
-10z m-1155 -306 c41 -33 122 -91 179 -130 114 -75 119 -88 39 -97 -47 -5 -58
-13 -104 -79 l-16 -22 -44 19 c-49 22 -217 144 -265 193 -17 17 -34 42 -36 56
-5 24 16 206 27 234 3 10 28 -7 75 -50 39 -34 104 -90 145 -124z m859 78 c37
-26 38 -27 33 -74 -4 -27 -9 -53 -12 -58 -12 -20 -51 -9 -120 31 -119 69 -126
84 -74 149 l31 38 51 -30 c29 -16 69 -41 91 -56z m1159 -8 c88 -44 107 -60
107 -91 0 -38 -15 -58 -59 -77 -39 -18 -73 -58 -210 -246 -31 -43 -51 -64 -47
-50 12 44 56 272 72 369 17 103 27 131 50 131 8 0 47 -16 87 -36z m-199 -217
c-29 -170 -42 -189 -219 -322 -88 -66 -122 -99 -160 -155 -27 -38 -52 -70 -55
-70 -4 0 -10 22 -14 50 -4 27 -13 68 -21 91 -26 73 -21 99 33 152 40 39 56 48
97 53 47 6 56 13 140 98 101 102 197 186 206 180 3 -2 0 -37 -7 -77z m-674 48
c0 -16 -6 -25 -16 -25 -11 0 -14 5 -10 16 3 9 6 20 6 25 0 5 5 9 10 9 6 0 10
-11 10 -25z m78 -320 c21 -15 21 -17 6 -40 -18 -27 -4 -35 16 -10 24 29 44 17
69 -43 26 -63 43 -221 23 -208 -7 4 -48 62 -92 129 -44 67 -87 129 -95 138
-20 21 -19 37 3 42 33 9 48 7 70 -8z m-911 -216 c139 -74 206 -97 351 -115
114 -14 140 -15 240 -2 62 8 115 11 117 8 5 -8 -13 -129 -21 -142 -11 -18 -62
-36 -120 -41 l-61 -6 -10 32 -10 32 -13 -32 c-11 -31 -15 -33 -58 -33 -74 1
-135 16 -153 38 -14 18 -18 19 -31 6 -13 -13 -23 -14 -59 -4 -76 19 -99 32
-105 57 -6 23 -7 23 -26 6 -19 -17 -21 -16 -66 7 -26 14 -51 35 -57 48 -5 12
-17 21 -25 20 -86 -12 -117 122 -37 157 18 8 36 14 41 15 5 0 52 -23 103 -51z
m-1090 -11 c7 -24 15 -52 19 -63 6 -18 5 -19 -9 -5 -17 15 -40 110 -28 110 4
0 12 -19 18 -42z m-143 -167 c10 -9 24 -28 32 -42 12 -23 11 -29 -1 -39 -8 -7
-20 -10 -27 -7 -21 8 -118 88 -118 97 0 23 86 16 114 -9z m252 -117 c44 -31
101 -75 129 -98 98 -82 164 -128 177 -123 8 3 -9 25 -44 59 -61 58 -67 68 -44
88 12 9 27 1 79 -48 67 -62 243 -173 363 -228 46 -20 109 -64 175 -119 57 -48
149 -119 204 -158 55 -38 136 -96 179 -129 44 -32 90 -58 103 -58 15 0 34 16
62 53 66 88 127 151 138 144 12 -7 164 -258 176 -289 10 -27 26 -22 32 10 3
15 10 43 15 62 5 19 16 68 25 109 21 103 45 181 54 181 5 0 36 -38 71 -85 35
-47 69 -85 76 -85 17 0 96 152 168 323 32 76 64 136 69 134 30 -10 217 -402
217 -454 0 -80 -183 -218 -375 -284 -258 -87 -493 -103 -939 -63 -426 38 -904
226 -1147 452 -62 57 -71 81 -43 120 19 27 46 28 103 2 52 -24 51 -24 51 -5 0
17 -46 42 -186 100 -146 60 -191 88 -199 125 -9 40 27 146 69 208 39 56 109
112 141 112 12 0 58 -25 101 -56z m2249 -202 c-1 -1 -14 20 -29 48 l-27 49 23
43 23 43 6 -90 c3 -49 5 -91 4 -93z m-1167 86 c6 -6 12 -19 12 -29 0 -30 18
-31 32 -2 12 25 17 27 62 24 66 -4 96 -16 96 -40 0 -31 18 -34 32 -4 13 26 15
26 93 24 69 -1 83 -5 99 -24 10 -12 21 -17 23 -12 10 28 23 35 77 41 65 8 76
1 76 -52 0 -47 -25 -62 -125 -74 -130 -14 -208 -12 -310 9 -109 22 -202 64
-272 120 -75 61 -70 73 20 48 39 -10 78 -24 85 -29z m-1898 -79 c0 -22 -25
-26 -33 -5 -6 16 12 38 25 30 4 -3 8 -14 8 -25z m2914 -214 c-39 -98 -94 -209
-118 -240 -15 -20 -16 -20 -41 10 -14 17 -39 49 -56 73 -30 41 -30 44 -14 63
10 10 41 32 69 48 28 16 83 54 121 84 39 30 71 54 72 52 2 -1 -13 -41 -33 -90z
m-1201 -40 c57 -24 261 -72 416 -100 80 -14 149 -29 154 -34 17 -17 -123 -191
-152 -191 -10 0 -38 14 -62 31 -24 17 -69 46 -99 66 -80 53 -300 224 -300 234
0 12 2 12 43 -6z m-1561 -38 c33 -24 37 -43 39 -172 2 -76 -2 -109 -15 -138
-38 -86 -155 -177 -226 -177 -21 0 -41 9 -61 29 -47 47 -39 81 41 167 49 52
58 74 76 209 5 38 15 58 40 83 37 37 55 37 106 -1z m2413 -197 c-8 -58 -31
-149 -40 -158 -3 -3 -10 -1 -15 4 -12 12 -110 177 -110 186 0 6 37 11 138 16
l34 2 -7 -50z m3105 -211 c0 -5 -4 -9 -10 -9 -5 0 -10 7 -10 16 0 8 5 12 10 9
6 -3 10 -10 10 -16z m-32 -65 c4 -29 -34 -61 -56 -48 -28 18 -26 41 5 58 34
18 47 16 51 -10z m-108 -55 c0 -11 -4 -17 -10 -14 -5 3 -10 15 -10 26 0 11 5
17 10 14 6 -3 10 -15 10 -26z m-34 7 c8 -20 -12 -53 -35 -59 -19 -5 -61 24
-61 43 0 9 46 28 73 29 10 1 20 -5 23 -13z m-759 -140 c15 -13 25 -27 21 -31
-9 -10 -48 1 -73 20 -17 14 -18 17 -5 25 21 14 26 13 57 -14z m-1901 -23 c15
-15 16 -31 11 -126 -8 -131 -14 -146 -47 -119 -20 16 -23 27 -21 75 1 32 -4
71 -13 91 -18 43 -12 42 -236 21 -277 -27 -291 -30 -322 -64 -16 -17 -28 -42
-28 -55 0 -29 -45 -86 -67 -86 -13 0 -15 10 -9 65 16 161 28 169 276 185 96 7
200 15 230 19 107 16 207 13 226 -6z m1695 -17 c-14 -17 -70 -41 -77 -33 -15
15 30 45 70 46 15 1 16 -2 7 -13z m337 -90 c54 -26 103 -46 108 -46 15 0 111
-97 116 -118 10 -38 -17 -80 -61 -93 -40 -12 -44 -11 -158 47 -64 32 -137 73
-162 91 -25 18 -65 47 -88 63 -33 23 -43 37 -43 58 0 48 16 55 107 49 69 -5
97 -13 181 -51z m-308 -21 c8 -25 8 -40 0 -55 -15 -29 -28 -25 -47 15 -16 33
-15 36 2 55 25 28 32 25 45 -15z m82 -107 c60 -46 98 -86 98 -107 0 -12 -6
-21 -12 -20 -26 1 -153 85 -156 102 -10 49 22 60 70 25z m-585 -54 c45 -12 38
-69 -11 -80 -17 -3 -73 -19 -125 -35 -51 -16 -100 -29 -107 -29 -10 0 -14 15
-14 55 0 58 7 67 69 86 31 9 157 11 188 3z m-287 -34 c0 -12 -69 -42 -84 -37
-13 4 53 47 72 47 6 0 12 -4 12 -10z m1108 -59 c43 -20 62 -45 46 -61 -9 -9
-133 46 -146 64 -4 6 -2 18 3 29 10 17 12 17 32 3 12 -9 41 -24 65 -35z
m-2440 -296 c6 -6 -46 -111 -62 -124 -25 -21 -47 5 -53 61 -5 46 4 61 42 71
18 5 66 0 73 -8z m193 -42 c16 -10 32 -26 35 -36 8 -24 -32 -67 -62 -67 -40 0
-56 88 -20 112 15 10 14 10 47 -9z m-371 -3 c0 -18 -41 -120 -51 -126 -18 -10
-39 18 -39 51 0 26 8 40 33 59 33 27 57 33 57 16z m276 -92 c21 -40 17 -63
-11 -76 -27 -12 -45 -48 -45 -87 0 -37 88 -252 117 -287 13 -14 12 -17 -5 -22
-10 -4 -26 -4 -35 0 -19 7 -137 -25 -137 -37 0 -5 -8 -4 -19 2 -30 19 -52 4
-49 -33 4 -44 -23 -45 -37 -2 -6 17 -16 38 -24 48 -38 46 40 265 106 296 41
19 42 39 3 47 -37 7 -39 33 -10 98 38 83 116 112 146 53z m232 2 c27 -25 28
-39 5 -56 -41 -30 -73 -12 -73 40 0 42 32 49 68 16z m868 -22 c11 -37 5 -103
-14 -149 l-18 -43 0 74 c1 65 -1 75 -17 78 -18 4 -18 2 -2 -22 20 -30 14 -69
-16 -106 -21 -24 -21 -24 -36 -5 -26 35 10 172 49 188 28 11 47 6 54 -15z m54
-2 c18 -35 8 -150 -16 -177 -29 -32 -40 -7 -19 47 13 33 16 62 12 100 -6 58 2
68 23 30z m-460 -8 c68 -12 78 -19 62 -45 -6 -9 -18 -7 -51 8 -24 10 -53 19
-65 19 -12 0 -31 7 -42 15 -19 14 -18 14 3 15 13 0 54 -5 93 -12z m-560 -21
c0 -28 38 -59 68 -56 40 5 62 -16 62 -58 0 -35 -24 -93 -38 -93 -5 0 -25 33
-45 73 -20 39 -45 80 -57 90 -31 26 -37 20 -8 -10 29 -32 79 -136 97 -203 7
-25 11 -66 9 -90 -2 -36 -7 -46 -23 -48 -24 -3 -55 43 -55 80 0 34 -48 149
-71 171 -40 37 -37 112 5 123 14 3 27 12 30 20 7 18 26 18 26 1z m352 1 c8
-21 -2 -38 -22 -38 -28 0 -36 21 -15 37 23 16 32 16 37 1z m822 -24 c14 -5 14
-9 1 -35 -30 -57 -75 -99 -107 -99 l-31 0 7 47 c9 66 31 86 98 92 9 0 23 -2
32 -5z m-726 -20 c26 -18 28 -30 6 -38 -22 -9 -62 3 -68 21 -13 34 23 44 62
17z m-553 -78 c6 -38 4 -47 -9 -52 -11 -4 -22 1 -31 12 -20 25 -16 102 4 114
19 10 26 -5 36 -74z m1600 70 c51 -22 43 -51 -22 -85 -48 -24 -81 27 -53 80
13 23 29 24 75 5z m-1220 -29 c47 -31 50 -35 47 -70 -2 -28 5 -48 28 -82 34
-50 45 -53 88 -28 l29 17 76 -59 c43 -33 77 -63 77 -68 0 -5 -13 2 -30 16 -16
14 -49 28 -72 32 -42 6 -93 15 -193 34 -34 7 -53 6 -60 -1 -7 -7 -6 -12 3 -15
29 -11 5 -76 -55 -150 -19 -24 -42 -43 -52 -43 -24 0 -41 20 -41 47 0 24 14
31 25 13 3 -5 15 -10 26 -10 10 0 19 5 19 10 0 6 -5 10 -11 10 -8 0 -9 11 -4
33 4 17 8 41 8 51 1 11 16 28 34 39 18 10 33 21 33 23 0 6 -54 -17 -88 -38
-26 -16 -36 -18 -45 -9 -9 10 -6 17 13 32 69 52 96 117 85 199 -4 28 -3 50 2
50 4 0 31 -15 58 -33z m275 0 c-27 -24 -69 -38 -76 -25 -10 16 25 38 60 38 26
0 28 -2 16 -13z m1050 -46 c0 -27 -19 -74 -33 -83 -18 -11 -75 -10 -82 2 -4 6
-11 8 -16 4 -6 -3 -5 3 2 14 14 22 98 81 117 82 6 0 12 -9 12 -19z m-1166 -10
c17 -19 17 -21 -7 -45 -20 -20 -31 -24 -48 -17 -13 4 -28 16 -34 25 -8 14 -5
21 14 37 30 24 53 24 75 0z m256 -6 c0 -8 -9 -15 -20 -15 -13 0 -18 5 -14 15
4 8 12 15 20 15 8 0 14 -7 14 -15z m994 -27 c18 -25 6 -48 -24 -48 -22 0 -30
18 -19 48 11 28 24 28 43 0z m-2176 -98 c-2 -88 -25 -171 -60 -222 -22 -32
-33 -34 -54 -14 -10 11 -14 40 -14 104 0 78 3 96 30 148 30 62 78 103 93 81 4
-7 6 -50 5 -97z m60 72 c2 -14 -2 -22 -11 -22 -17 0 -26 19 -19 38 7 19 27 9
30 -16z m2563 -9 c12 -15 12 -16 -4 -10 -10 4 -23 7 -28 7 -6 0 -7 5 -4 10 9
15 21 12 36 -7z m-2208 -17 c8 -20 -20 -43 -35 -28 -14 14 -3 42 16 42 7 0 16
-6 19 -14z m2515 -47 c-2 -6 -8 -10 -13 -10 -5 0 -11 4 -13 10 -2 6 4 11 13
11 9 0 15 -5 13 -11z m-3231 -25 c9 -23 -24 -47 -42 -31 -9 8 -10 18 -4 30 12
22 38 22 46 1z m770 -35 c16 -29 33 -61 40 -72 18 -32 5 -40 -27 -17 -18 13
-27 26 -23 35 3 9 -7 26 -25 42 -25 21 -29 30 -21 45 15 28 27 22 56 -33z
m-1083 -3 c-3 -9 -12 -16 -20 -16 -8 0 -14 -7 -14 -15 0 -8 6 -15 14 -15 15 0
38 23 35 36 -1 5 -1 16 0 24 1 12 4 12 15 -3 7 -9 11 -28 8 -42 -4 -21 -1 -25
20 -25 40 0 48 -17 26 -58 -10 -20 -21 -54 -24 -74 -5 -28 -12 -38 -30 -42
-28 -7 -79 -79 -71 -100 3 -8 20 -17 37 -21 17 -4 30 -8 28 -10 -2 -2 -47 -15
-101 -30 -89 -23 -104 -25 -179 -15 -46 5 -112 10 -148 10 -61 0 -67 2 -97 34
-18 18 -33 39 -33 47 0 8 26 32 58 54 52 36 63 40 122 40 36 0 85 -3 110 -7
44 -7 46 -7 68 29 15 23 22 48 20 69 -3 41 7 52 52 56 26 2 36 8 38 23 3 18
62 78 70 71 1 -2 0 -11 -4 -20z m664 -21 c-12 -27 -28 -24 -28 6 0 12 7 19 20
19 17 0 18 -3 8 -25z m741 -55 c-12 -28 -30 -55 -40 -61 -22 -11 -26 3 -6 19
7 6 24 34 37 63 31 65 39 47 9 -21z m218 48 c30 -24 -19 -38 -58 -17 -16 8
-18 13 -8 25 12 15 42 11 66 -8z m2250 -55 c-3 -10 -5 -2 -5 17 0 19 2 27 5
18 2 -10 2 -26 0 -35z m-3619 17 c45 -28 51 -48 20 -75 -20 -17 -23 -25 -15
-43 12 -27 27 -29 27 -2 0 11 6 20 13 20 16 0 97 -68 97 -81 0 -6 -12 -21 -26
-36 -29 -28 -49 -28 -176 4 -59 15 -66 19 -57 35 5 10 7 18 5 18 -3 0 -1 11 4
25 12 33 1 32 -25 -2 -29 -36 -49 -23 -42 29 7 49 29 83 70 108 41 25 64 25
105 0z m376 -68 c-18 -43 -31 -59 -41 -49 -8 9 16 79 30 89 22 14 26 -4 11
-40z m96 -27 c0 -14 -5 -25 -12 -25 -23 0 1 -12 43 -21 49 -11 69 -25 69 -47
0 -23 -40 -62 -65 -62 -48 0 -122 31 -154 63 l-32 34 25 7 c15 4 33 20 42 39
10 17 24 37 33 44 22 16 51 -2 51 -32z m180 25 c0 -5 -7 -10 -16 -10 -8 0 -12
5 -9 10 3 6 10 10 16 10 5 0 9 -4 9 -10z m-1096 -22 c8 -13 7 -21 -2 -30 -10
-10 -17 -8 -33 9 -23 22 -18 46 8 41 9 -2 21 -11 27 -20z m596 1 c0 -5 -7 -9
-15 -9 -9 0 -12 6 -9 15 6 15 24 11 24 -6z m460 -3 c0 -2 -7 -9 -15 -16 -13
-11 -14 -10 -9 4 5 14 24 23 24 12z m3041 -60 c14 -15 11 -26 -6 -26 -11 0
-15 11 -14 48 2 33 3 38 6 17 3 -16 9 -34 14 -39z m-3383 -8 c19 -19 14 -30
-8 -18 -11 6 -20 15 -20 20 0 14 14 12 28 -2z m3382 -38 c0 -5 -4 -10 -10 -10
-5 0 -10 5 -10 10 0 6 5 10 10 10 6 0 10 -4 10 -10z m18 -183 c4 -19 -6 -21
-27 -8 -16 10 -5 34 12 28 7 -2 13 -11 15 -20z m1532 -162 c0 -8 -7 -15 -15
-15 -8 0 -15 7 -15 15 0 8 7 15 15 15 8 0 15 -7 15 -15z m-1252 -31 c75 -20
-66 -147 -221 -198 -76 -25 -178 -37 -196 -23 -19 16 -71 88 -71 98 0 14 72
47 146 68 38 10 94 28 124 40 55 20 168 28 218 15z m106 -62 c7 -11 -22 -67
-45 -88 -17 -16 -22 -16 -29 -4 -17 27 -10 58 16 79 28 22 49 27 58 13z m201
-26 c28 -13 63 -38 79 -56 23 -28 27 -39 21 -69 -4 -20 -14 -49 -24 -66 -20
-35 -49 -36 -114 -5 -21 11 -60 22 -85 25 -92 13 -98 19 -57 63 14 15 30 45
36 67 6 22 13 46 15 53 6 20 75 14 129 -12z m-5573 -58 c-9 -9 -12 -7 -12 12
0 19 3 21 12 12 9 -9 9 -15 0 -24z m5273 -27 c0 -30 -15 -36 -40 -17 -17 12
-17 16 -6 30 20 24 46 16 46 -13z m1052 13 c-3 -3 -12 -4 -19 -1 -8 3 -5 6 6
6 11 1 17 -2 13 -5z m-1116 -34 c30 -16 22 -30 -16 -28 -32 1 -45 15 -28 31 9
10 21 9 44 -3z"/>
<path d="M3636 6451 c-3 -4 1 -16 8 -26 16 -23 46 -13 46 15 0 15 -7 20 -24
20 -14 0 -27 -4 -30 -9z"/>
<path d="M3694 6325 c-4 -8 -11 -12 -16 -9 -15 9 -26 -13 -20 -42 3 -17 11
-24 28 -24 27 0 29 3 38 53 6 30 4 37 -9 37 -9 0 -18 -7 -21 -15z"/>
<path d="M4216 1092 c3 -11 1 -29 -4 -39 -13 -24 3 -56 17 -34 10 15 4 71 -9
85 -5 5 -7 0 -4 -12z"/>
<path d="M4386 958 c-3 -13 -6 -27 -6 -33 1 -15 30 27 30 42 0 22 -17 15 -24
-9z"/>
<path d="M3635 1103 c8 -18 9 -48 6 -110 0 -18 -13 -45 -28 -63 -23 -28 -24
-32 -7 -28 28 5 45 51 51 139 5 71 4 79 -12 79 -12 0 -15 -5 -10 -17z"/>
<path d="M3601 1070 c-1 -8 -4 -26 -7 -40 -5 -22 -4 -23 6 -7 6 10 9 28 7 40
-2 12 -5 15 -6 7z"/>
<path d="M9317 7178 c3 -18 -7 -32 -41 -61 -26 -21 -55 -56 -67 -78 -11 -22
-28 -43 -37 -46 -51 -17 -130 -57 -149 -75 -13 -12 -26 -37 -29 -55 -7 -39
-15 -43 -126 -68 -43 -9 -88 -25 -100 -36 l-23 -18 27 -1 c15 0 61 5 101 11
97 14 166 -4 217 -56 18 -19 37 -35 42 -35 4 0 31 -18 60 -40 29 -22 58 -40
64 -40 6 0 17 -7 24 -15 11 -14 33 -21 113 -41 38 -9 34 10 -5 29 -29 14 -157
93 -183 114 -155 122 -180 189 -93 244 28 17 46 19 113 17 80 -3 105 7 69 27
-30 16 -34 27 -18 58 10 17 33 36 62 49 44 19 50 19 95 5 26 -8 47 -12 46 -9
0 4 -25 27 -54 52 -78 66 -86 93 -20 66 52 -22 75 -21 75 4 0 18 -7 20 -84 20
-81 0 -83 -1 -79 -22z"/>
<path d="M9422 6919 c-25 -7 -37 -19 -48 -45 -20 -48 -4 -83 53 -118 52 -31
53 -31 53 -8 0 10 -15 26 -35 37 -44 23 -44 51 2 80 20 13 32 28 33 43 0 24
-7 25 -58 11z"/>
<path d="M8624 6546 c-39 -39 -43 -67 -16 -122 16 -36 16 -37 -2 -48 -11 -6
-33 -23 -50 -37 -17 -15 -72 -47 -122 -72 -49 -25 -96 -52 -103 -60 -19 -23
-26 -84 -11 -102 17 -21 9 -27 -43 -30 -125 -8 -237 -110 -207 -189 18 -48 13
-54 -61 -78 -83 -27 -100 -46 -103 -118 -3 -57 1 -51 -54 -79 -66 -33 -91 -60
-107 -115 -20 -68 -19 -69 13 -11 26 48 29 50 82 58 30 4 111 11 180 15 115 6
125 9 125 27 0 15 -16 25 -72 45 -119 42 -129 67 -46 120 46 29 52 30 133 26
47 -2 125 -13 173 -24 84 -19 127 -19 127 -2 0 19 -55 49 -98 55 -83 12 -161
37 -187 61 -45 41 -28 99 33 110 20 4 49 13 64 20 15 8 52 14 83 14 56 0 105
20 105 44 0 6 -16 24 -35 39 -22 18 -35 36 -35 52 0 35 52 68 117 73 52 4 53
5 63 44 8 27 21 45 43 58 41 25 56 25 147 -4 79 -25 237 -53 247 -43 3 4 -7
22 -23 41 -21 24 -43 37 -79 46 -127 32 -174 51 -199 81 -34 40 -33 59 6 91
l33 27 -28 10 c-44 17 -56 14 -93 -23z"/>
<path d="M9218 6388 c-28 -10 -91 -91 -80 -102 3 -3 20 -6 39 -6 25 0 36 5 42
23 5 12 23 35 40 51 17 17 31 33 31 38 0 11 -38 9 -72 -4z"/>
<path d="M8706 6184 c-21 -56 12 -136 73 -178 23 -16 41 -32 41 -35 0 -3 -12
-15 -27 -26 -66 -50 -67 -61 -10 -135 50 -64 87 -87 159 -101 65 -12 235 -24
227 -15 -3 3 -41 15 -85 26 -43 11 -111 39 -151 62 -123 70 -141 100 -74 118
32 8 48 7 83 -6 63 -24 141 -29 157 -10 26 31 -28 60 -178 97 -35 8 -61 27
-123 88 -70 69 -78 81 -73 104 8 29 -9 38 -19 11z"/>
<path d="M9398 6183 c-3 -4 -8 -20 -12 -35 -6 -25 -4 -28 21 -28 16 0 38 -3
51 -6 20 -6 22 -3 22 30 0 28 -4 36 -17 36 -10 0 -28 3 -39 6 -12 3 -24 2 -26
-3z"/>
<path d="M8530 5690 c0 -5 11 -10 24 -10 14 0 28 5 31 10 4 6 -7 10 -24 10
-17 0 -31 -4 -31 -10z"/>
<path d="M8473 5683 c9 -2 23 -2 30 0 6 3 -1 5 -18 5 -16 0 -22 -2 -12 -5z"/>
<path d="M8664 5460 c-12 -5 -59 -14 -104 -21 -107 -15 -86 -32 30 -23 55 4
91 11 103 22 32 29 17 41 -29 22z"/>
<path d="M8868 5386 c-74 -27 -88 -42 -88 -91 0 -38 3 -45 19 -45 12 0 26 14
38 38 22 42 34 46 146 60 43 5 81 13 84 16 29 28 -135 47 -199 22z"/>
<path d="M7620 5329 c-19 -16 -47 -35 -62 -42 -48 -21 -127 -105 -139 -148
-10 -32 -9 -50 5 -100 33 -119 80 -161 241 -212 145 -47 229 -60 319 -52 91 8
142 8 269 -1 84 -5 91 -4 129 21 45 30 57 29 152 -5 36 -13 105 -25 175 -31
88 -8 128 -16 166 -35 92 -44 155 -64 206 -64 87 0 145 37 158 102 7 33 7 33
66 33 40 0 79 8 118 24 l57 23 0 64 c0 37 -4 64 -10 64 -6 0 -27 -7 -47 -15
-61 -26 -73 -21 -73 28 0 61 -15 75 -72 69 -56 -5 -69 -29 -31 -61 22 -20 22
-23 8 -37 -12 -13 -42 -17 -133 -19 -64 -1 -132 -6 -149 -10 -22 -5 -33 -4
-33 3 0 6 -17 23 -37 37 -30 20 -50 25 -96 25 -64 0 -68 -12 -9 -31 154 -51
125 -132 -48 -133 -79 0 -108 7 -230 56 -66 27 -78 36 -95 71 -24 48 -57 74
-105 84 l-34 6 34 -42 c65 -79 64 -77 41 -100 -28 -28 -101 -28 -239 -1 -95
19 -142 35 -142 51 0 14 -97 88 -123 94 l-28 7 35 -58 c19 -33 37 -70 41 -83
l7 -24 -83 6 c-116 7 -175 37 -292 146 -4 5 -4 19 2 32 5 13 12 36 15 51 9 40
51 58 139 58 40 0 76 3 80 6 15 15 -26 66 -69 84 -49 22 -63 43 -45 71 16 28
1 23 -39 -12z m1498 -480 c34 -16 62 -31 62 -33 0 -2 3 -11 6 -19 13 -36 -81
-59 -176 -44 -75 11 -78 15 -56 68 7 19 16 42 20 53 8 24 57 16 144 -25z"/>
<path d="M9161 5325 c-17 -19 -38 -49 -47 -66 -15 -30 -15 -32 7 -55 21 -23
21 -24 3 -31 -10 -4 -36 -7 -56 -8 -32 0 -38 -3 -38 -22 0 -12 -3 -29 -7 -39
-6 -15 -1 -16 39 -11 25 3 63 17 84 29 22 13 52 23 69 23 20 0 33 7 40 21 6
12 23 40 39 62 l28 41 -24 23 c-20 20 -92 68 -103 68 -1 0 -17 -16 -34 -35z"/>
<path d="M7873 5320 c-13 -5 -23 -13 -23 -18 0 -18 99 -41 190 -44 79 -3 95 0
95 12 0 11 -15 17 -50 21 -28 4 -65 14 -82 23 -35 17 -95 20 -130 6z"/>
<path d="M9340 4052 c-8 -3 -37 -20 -63 -38 -27 -18 -65 -36 -85 -40 -64 -10
-101 -25 -133 -51 -23 -20 -35 -24 -57 -17 -35 10 -199 11 -234 1 -15 -4 -42
-20 -60 -36 -30 -25 -43 -29 -133 -35 -54 -4 -107 -12 -116 -17 -29 -15 -57
-10 -127 23 -111 52 -198 49 -299 -10 -69 -41 -93 -80 -82 -134 4 -24 8 -59 9
-78 l0 -36 -67 4 c-70 5 -191 -13 -233 -34 -39 -19 -61 -49 -67 -92 l-5 -40
-97 -4 c-118 -5 -169 -28 -197 -90 -15 -34 -16 -46 -5 -85 14 -55 12 -58 -69
-66 -32 -4 -88 -19 -124 -34 -60 -24 -68 -31 -91 -77 -31 -63 -31 -92 0 -138
35 -52 32 -62 -25 -77 -57 -15 -110 -66 -110 -106 0 -29 30 -34 51 -9 20 24
82 52 127 58 23 3 50 10 61 15 21 12 66 5 201 -31 93 -25 110 -34 110 -56 0
-25 -20 -42 -50 -42 -14 0 -42 -11 -61 -24 -20 -14 -48 -28 -63 -32 -14 -3
-23 -11 -20 -16 3 -5 17 -7 30 -4 21 6 27 1 40 -29 13 -32 18 -35 54 -35 166
0 256 90 188 190 -42 61 -193 119 -315 120 -23 0 -45 5 -48 10 -3 6 -14 10
-25 10 -22 0 -71 54 -90 99 -20 50 8 96 80 134 49 25 63 28 125 25 78 -5 194
-43 203 -67 15 -39 94 -151 107 -151 20 0 19 46 0 84 -20 38 -19 46 5 46 25 0
26 17 2 24 -10 4 -34 20 -52 36 -19 17 -37 30 -42 30 -4 0 -37 30 -73 67 -72
74 -80 99 -41 138 68 68 247 54 406 -32 112 -60 124 -76 71 -94 -30 -11 -48
-46 -31 -63 7 -7 10 -3 10 11 0 28 24 46 61 46 34 0 79 -21 79 -38 0 -21 -52
-40 -103 -38 -33 1 -45 -2 -36 -8 43 -27 -129 8 -275 56 -92 30 -123 28 -51
-4 118 -52 120 -54 120 -91 0 -62 37 -86 48 -31 6 31 27 44 53 34 12 -4 14
-14 9 -40 -5 -29 -3 -35 14 -40 24 -6 26 -14 9 -31 -38 -38 71 -47 144 -12 57
27 71 42 96 105 20 50 20 50 -1 90 -11 22 -29 54 -41 70 -12 17 -26 38 -31 48
-6 10 -39 34 -75 53 -36 20 -72 42 -80 49 -8 7 -34 22 -57 34 -69 35 -81 88
-25 109 94 37 167 40 263 13 86 -24 114 -40 177 -98 36 -34 52 -57 52 -74 0
-28 -32 -63 -67 -73 -31 -10 -37 -35 -11 -45 33 -12 90 5 116 34 16 20 22 39
22 76 l0 51 73 -7 c58 -5 84 -2 135 14 69 22 105 19 194 -16 82 -32 70 -55
-40 -79 -42 -9 -81 -19 -86 -22 -35 -20 188 -31 227 -11 12 7 30 20 40 31 23
24 42 11 63 -42 16 -39 41 -57 120 -88 80 -32 82 -11 3 32 -74 40 -110 79 -91
98 6 6 51 14 99 17 l88 7 -32 19 c-40 24 -40 33 -7 82 23 33 25 45 20 91 -9
78 -38 125 -106 172 -53 36 -150 114 -150 121 0 10 174 -3 235 -18 33 -8 78
-26 100 -41 22 -14 42 -27 44 -29 2 -1 7 -23 12 -49 11 -56 21 -69 70 -95 38
-19 89 -26 89 -12 0 4 -20 26 -45 49 -25 22 -45 48 -45 57 0 22 52 31 151 25
75 -4 79 -4 79 16 0 20 -5 21 -103 21 -98 0 -105 2 -162 34 -82 47 -95 60 -95
92 0 23 6 30 28 36 36 10 236 10 290 0 38 -6 42 -5 42 12 0 22 -8 25 -94 40
-70 13 -77 18 -52 37 12 9 44 14 83 14 61 0 63 1 63 26 0 24 -2 25 -62 23 -35
-1 -70 -4 -78 -7z m-1037 -248 c57 -29 67 -43 67 -97 0 -46 3 -53 51 -99 46
-44 51 -53 45 -80 -13 -64 -60 -88 -170 -88 -67 0 -78 3 -103 26 -15 14 -47
38 -71 55 -60 41 -102 111 -102 167 0 56 31 110 68 118 15 3 32 7 37 9 32 11
149 3 178 -11z m342 -55 c113 -35 207 -83 257 -131 53 -52 84 -106 70 -120 -5
-5 -41 -12 -79 -15 -67 -5 -75 -4 -146 32 -82 40 -136 57 -180 58 -32 0 -123
84 -133 122 -8 31 1 44 40 61 44 19 94 17 171 -7z m-16 -233 c11 -13 10 -17
-3 -22 -21 -8 -46 13 -46 38 0 15 4 17 18 9 10 -5 24 -17 31 -25z m-89 -46 c0
-5 -2 -10 -4 -10 -3 0 -8 5 -11 10 -3 6 -1 10 4 10 6 0 11 -4 11 -10z m210
-15 c13 -16 6 -35 -15 -35 -18 0 -28 17 -21 35 7 19 20 19 36 0z m98 -48 c2
-10 -3 -17 -12 -17 -18 0 -29 16 -21 31 9 14 29 6 33 -14z m-983 -367 c7 -11
-42 -37 -51 -27 -4 3 -4 13 -1 22 7 17 42 21 52 5z m-359 -341 c13 -15 16 -24
8 -36 -16 -26 -30 -26 -42 2 -25 54 -3 75 34 34z m-67 -68 c8 -14 7 -22 -5
-32 -20 -16 -38 2 -29 30 8 26 21 27 34 2z m-79 -47 c0 -8 -4 -12 -10 -9 -5 3
-10 10 -10 16 0 5 5 9 10 9 6 0 10 -7 10 -16z"/>
<path d="M9452 3517 c-6 -6 -14 -25 -17 -40 -6 -21 -3 -31 11 -42 30 -23 34
-18 34 40 0 55 -8 67 -28 42z"/>
<path d="M9335 3174 c-49 -12 -51 -15 -31 -30 13 -9 46 -14 98 -14 71 0 78 2
78 20 0 13 -7 20 -19 20 -10 0 -38 2 -62 4 -24 3 -53 2 -64 0z"/>
<path d="M8876 3087 c10 -27 -4 -65 -29 -82 -51 -33 -129 -38 -258 -15 -160
27 -165 21 -34 -38 85 -38 150 -47 234 -33 51 8 71 17 98 43 40 39 42 71 7
113 -13 17 -22 22 -18 12z"/>
<path d="M9002 3028 c2 -6 17 -16 34 -21 161 -49 220 -100 162 -141 -28 -20
-93 -20 -167 -2 -86 22 -151 29 -151 17 0 -6 42 -31 93 -56 72 -35 104 -45
142 -45 96 0 165 35 165 84 0 44 -39 115 -73 133 -71 36 -214 58 -205 31z"/>
<path d="M9251 3031 c24 -16 160 -51 196 -51 29 0 33 3 33 25 0 22 -4 25 -37
25 -21 0 -76 3 -123 6 -59 4 -80 2 -69 -5z"/>
<path d="M7963 2903 c-33 -21 -44 -36 -53 -71 l-11 -44 -59 6 c-68 8 -132 -6
-161 -35 -35 -35 -19 -131 24 -145 11 -4 41 -22 67 -40 45 -32 100 -46 100
-24 0 5 -10 14 -22 21 -13 6 -47 34 -75 62 -58 56 -67 89 -31 108 32 17 142 2
217 -30 36 -16 74 -31 84 -34 32 -11 18 -37 -30 -58 -27 -11 -56 -30 -65 -42
-58 -74 40 -199 194 -247 76 -24 78 -24 78 -5 0 13 -20 27 -111 75 -16 8 -49
32 -74 53 -35 30 -45 45 -45 68 0 48 46 62 172 53 108 -8 127 4 43 25 -32 8
-48 19 -59 39 -11 22 -95 103 -136 132 -13 9 -30 48 -30 68 0 10 10 24 23 31
44 23 244 0 372 -44 11 -4 -4 7 -32 24 -63 37 -218 81 -288 81 -38 0 -61 -7
-92 -27z"/>
<path d="M9423 2454 c-40 -17 -55 -60 -29 -80 22 -16 44 -8 42 14 0 9 9 21 22
27 13 6 22 19 22 32 0 26 -11 27 -57 7z"/>
<path d="M9030 2390 c0 -6 8 -13 18 -17 9 -3 29 -15 44 -25 14 -10 36 -18 48
-18 32 0 89 -29 101 -52 8 -14 6 -25 -6 -44 -12 -19 -13 -24 -2 -24 22 0 47
34 47 63 0 30 -30 62 -67 72 -13 3 -42 17 -64 30 -39 26 -119 35 -119 15z"/>
<path d="M680 2292 c0 -15 -5 -33 -12 -40 -8 -8 -8 -12 -1 -12 15 0 29 20 37
53 5 20 3 27 -9 27 -10 0 -15 -10 -15 -28z"/>
<path d="M9033 2300 c-12 -5 -29 -20 -39 -35 -19 -30 -10 -46 36 -65 17 -7 30
-16 30 -21 0 -5 15 -9 33 -8 l32 1 -31 11 c-55 22 -87 51 -80 75 4 11 16 24
27 27 10 4 19 11 19 16 0 5 -1 9 -2 8 -2 0 -13 -4 -25 -9z"/>
<path d="M9076 2273 c-9 -27 -1 -43 21 -43 11 0 13 4 5 13 -5 6 -12 21 -14 32
-4 19 -5 19 -12 -2z"/>
<path d="M620 2256 c0 -2 7 -7 16 -10 8 -3 12 -2 9 4 -6 10 -25 14 -25 6z"/>
<path d="M8090 2243 c-35 -2 -69 -8 -75 -12 -5 -5 -33 -12 -60 -16 -28 -3 -57
-11 -65 -17 -11 -7 -5 -8 20 -3 19 3 59 9 88 11 47 4 52 3 52 -15 0 -11 -8
-22 -17 -25 -10 -3 0 -2 22 1 22 4 58 7 80 8 29 0 41 5 43 18 4 19 -14 23 -21
5 -4 -10 -7 -10 -18 0 -9 9 -10 12 -1 12 7 0 12 8 13 18 0 10 3 12 6 5 2 -7
11 -13 20 -13 13 0 13 2 -1 15 -8 8 -16 14 -18 13 -2 -1 -32 -3 -68 -5z"/>
<path d="M8200 2230 c0 -12 8 -12 35 0 18 8 17 9 -7 9 -16 1 -28 -3 -28 -9z"/>
<path d="M7061 2209 c-81 -16 -103 -61 -54 -113 31 -34 127 -80 149 -72 21 8
9 24 -32 41 -44 18 -84 59 -84 84 0 33 43 36 163 14 59 -10 110 -16 113 -12 8
14 -39 38 -106 53 -72 17 -85 18 -149 5z"/>
<path d="M9458 2204 c-9 -11 -19 -41 -23 -68 l-8 -48 -44 5 c-84 9 -63 -39 45
-102 l52 -30 0 59 c0 32 -5 71 -12 85 -9 19 -8 30 1 49 7 12 11 33 9 46 -3 22
-4 22 -20 4z"/>
<path d="M9170 2189 c0 -5 5 -7 10 -4 6 3 10 8 10 11 0 2 -4 4 -10 4 -5 0 -10
-5 -10 -11z"/>
<path d="M7790 2181 c-19 -4 -53 -15 -75 -25 -63 -28 -142 -67 -123 -62 10 3
22 -2 27 -12 8 -15 11 -14 20 11 6 15 15 27 21 27 6 0 27 7 48 16 20 9 50 18
66 20 16 2 34 8 40 13 6 5 20 11 31 14 l20 5 -20 0 c-11 0 -36 -3 -55 -7z"/>
<path d="M9138 2173 c7 -3 16 -2 19 1 4 3 -2 6 -13 5 -11 0 -14 -3 -6 -6z"/>
<path d="M1180 2065 c0 -8 9 -15 20 -15 11 0 20 7 20 15 0 8 -9 15 -20 15 -11
0 -20 -7 -20 -15z"/>
<path d="M7600 2060 c0 -12 28 -20 45 -14 24 10 17 19 -15 20 -17 1 -30 -2
-30 -6z"/>
<path d="M7570 2049 c0 -5 5 -7 10 -4 6 3 10 8 10 11 0 2 -4 4 -10 4 -5 0 -10
-5 -10 -11z"/>
<path d="M7535 2041 c-3 -5 -1 -12 5 -16 5 -3 10 1 10 9 0 18 -6 21 -15 7z"/>
<path d="M7505 2030 c3 -5 8 -10 11 -10 2 0 4 5 4 10 0 6 -5 10 -11 10 -5 0
-7 -4 -4 -10z"/>
<path d="M7583 2030 c-13 -5 -23 -14 -23 -19 0 -5 14 -3 30 5 44 23 39 32 -7
14z"/>
<path d="M8380 2030 c-8 -5 -12 -12 -9 -15 4 -3 12 1 19 10 14 17 11 19 -10 5z"/>
<path d="M8876 2026 c3 -9 11 -16 16 -16 13 0 5 23 -10 28 -7 2 -10 -2 -6 -12z"/>
<path d="M7905 2020 c-3 -5 -1 -10 4 -10 6 0 11 5 11 10 0 6 -2 10 -4 10 -3 0
-8 -4 -11 -10z"/>
<path d="M7888 1979 c-10 -5 -18 -17 -18 -24 0 -20 6 -19 30 5 30 30 24 40
-12 19z"/>
<path d="M8321 1899 c10 -9 19 -21 19 -26 0 -5 12 -16 28 -24 15 -8 29 -16 32
-19 12 -14 79 -27 83 -17 2 6 20 7 52 2 48 -7 49 -8 21 -16 -18 -5 -35 -4 -42
2 -7 5 -14 6 -17 2 -6 -10 11 -34 39 -53 40 -28 120 -105 154 -150 19 -25 39
-48 45 -52 5 -4 11 -28 12 -55 2 -26 10 -71 18 -99 9 -32 14 -89 14 -150 -1
-54 1 -110 3 -124 3 -14 6 -30 7 -37 0 -7 7 -10 15 -7 33 13 16 -85 -18 -108
-8 -6 -6 -11 4 -18 12 -8 12 -10 1 -10 -11 0 -11 -3 -1 -15 10 -12 10 -15 -1
-15 -11 0 -11 -2 1 -10 10 -6 11 -10 3 -10 -17 0 -16 -38 1 -55 11 -12 17 -10
38 13 14 15 28 38 31 52 3 14 13 52 22 85 9 33 18 95 20 137 2 42 7 82 11 89
13 22 7 103 -14 181 -20 72 -36 165 -30 171 9 9 -145 176 -212 230 -53 42
-159 94 -210 103 -19 4 -40 10 -46 15 -6 5 -31 8 -56 7 -44 -2 -45 -3 -27 -19z
m296 -125 c-3 -3 -12 -4 -19 -1 -8 3 -5 6 6 6 11 1 17 -2 13 -5z m113 -104 c0
-5 5 -10 11 -10 20 0 48 -44 42 -67 -3 -13 6 -44 21 -75 30 -62 43 -118 28
-118 -16 0 -52 55 -52 79 0 12 -5 21 -10 21 -6 0 -10 6 -9 13 1 6 -5 28 -14
49 -22 49 -37 118 -26 118 5 0 9 -4 9 -10z m112 -512 c-7 -7 -12 -8 -12 -2 0
14 12 26 19 19 2 -3 -1 -11 -7 -17z"/>
<path d="M8747 1907 c-3 -8 -1 -20 4 -28 10 -17 42 -1 47 25 4 20 -43 23 -51
3z"/>
<path d="M7790 1861 c-14 -5 -41 -18 -60 -29 -45 -28 -14 -30 38 -2 71 37 79
48 22 31z"/>
<path d="M7500 1798 c0 -9 5 -20 10 -23 13 -8 13 5 0 25 -8 13 -10 13 -10 -2z"/>
<path d="M8197 1803 c-4 -3 -7 -12 -7 -20 0 -17 26 -17 33 1 8 21 -11 35 -26
19z"/>
<path d="M7610 1753 c-25 -19 -53 -49 -63 -66 -9 -18 -23 -36 -30 -42 -18 -14
-97 -160 -97 -180 0 -8 -13 -41 -29 -73 -31 -62 -61 -166 -61 -213 0 -17 -4
-38 -9 -47 -13 -24 -24 -169 -13 -176 5 -3 9 0 9 7 3 30 35 163 49 196 48 117
151 335 165 350 11 11 15 28 12 44 -7 36 14 92 48 130 16 17 29 36 29 41 0 6
12 23 27 38 37 38 18 34 -37 -9z"/>
<path d="M7500 1729 c0 -5 5 -7 10 -4 6 3 10 8 10 11 0 2 -4 4 -10 4 -5 0 -10
-5 -10 -11z"/>
<path d="M9167 1679 c7 -7 15 -10 18 -7 3 3 -2 9 -12 12 -14 6 -15 5 -6 -5z"/>
<path d="M8360 1651 c0 -13 22 -27 53 -35 30 -7 35 4 11 28 -16 17 -64 22 -64
7z"/>
<path d="M8987 1632 c-30 -19 -34 -55 -5 -60 20 -4 58 35 58 60 0 22 -17 23
-53 0z"/>
<path d="M7315 1500 c-3 -5 -1 -18 5 -29 5 -11 7 -27 4 -35 -9 -24 4 -19 21 8
13 19 14 29 5 45 -12 23 -25 27 -35 11z"/>
<path d="M9409 1403 c-30 -16 -55 -36 -57 -46 -2 -10 14 -35 38 -59 27 -28 38
-47 34 -57 -23 -52 -10 -121 21 -121 8 0 15 -4 15 -10 0 -5 5 -10 10 -10 14 0
12 66 -2 91 -10 17 -10 23 0 26 6 3 12 20 12 39 0 27 -4 34 -19 34 -11 0 -29
12 -40 26 -25 32 -16 55 29 74 16 7 30 19 30 26 0 20 -9 18 -71 -13z"/>
<path d="M9290 1329 c0 -5 5 -7 10 -4 6 3 10 8 10 11 0 2 -4 4 -10 4 -5 0 -10
-5 -10 -11z"/>
<path d="M8944 1265 c-9 -22 13 -44 36 -38 23 6 24 12 6 36 -16 21 -35 22 -42
2z"/>
<path d="M9066 1268 c-3 -7 -7 -25 -10 -41 -6 -26 -5 -27 21 -21 35 8 40 13
48 47 7 25 5 27 -24 27 -17 0 -33 -6 -35 -12z"/>
<path d="M5440 1255 c-20 -24 2 -41 24 -20 16 16 14 35 -3 35 -5 0 -14 -7 -21
-15z"/>
<path d="M5365 1200 c-7 -23 2 -43 16 -35 12 8 12 55 0 55 -5 0 -12 -9 -16
-20z"/>
<path d="M9275 1193 c-11 -42 -14 -121 -6 -151 6 -23 9 -17 20 38 6 36 16 78
21 94 5 16 7 33 4 37 -11 18 -32 8 -39 -18z"/>
<path d="M5440 1175 c-20 -21 -21 -25 -6 -25 23 0 76 28 76 40 0 20 -47 9 -70
-15z"/>
<path d="M7733 1137 c-48 -10 -53 -13 -53 -38 0 -18 6 -28 20 -32 22 -6 37 8
18 16 -7 3 2 6 20 6 18 1 31 -3 28 -8 -3 -5 1 -14 10 -21 8 -7 11 -16 7 -19
-4 -3 -14 -17 -21 -29 -12 -21 -10 -28 14 -63 29 -43 37 -46 56 -25 11 12 16
12 31 -2 21 -19 26 -14 26 24 -1 133 -24 182 -83 176 -23 -3 -28 0 -23 12 4 9
5 15 4 14 -1 0 -26 -6 -54 -11z m114 -178 c-5 -3 -19 -4 -33 -1 -23 4 -24 6
-9 22 8 9 15 26 15 37 0 12 6 23 13 26 14 4 27 -74 14 -84z"/>
<path d="M8219 1129 c-7 -5 -24 -9 -35 -9 -12 0 -34 -10 -49 -22 -28 -21 -28
-22 -6 -30 12 -4 20 -12 16 -18 -4 -6 1 -7 12 -4 17 5 17 5 0 -9 -12 -10 -15
-22 -11 -46 4 -20 3 -31 -5 -31 -14 0 -58 -70 -67 -107 -4 -15 -14 -34 -22
-42 -12 -12 -11 -16 10 -27 25 -14 37 -2 20 19 -14 16 -5 28 39 55 28 17 38
19 48 9 6 -6 5 2 -4 20 -16 32 -12 83 7 83 5 0 6 -5 3 -10 -6 -10 21 -7 63 6
7 2 10 -1 7 -6 -3 -6 -13 -10 -21 -10 -8 0 -14 -4 -14 -10 0 -17 14 -11 53 21
24 20 36 37 32 46 -4 12 0 14 15 10 13 -3 18 -1 13 6 -4 6 -1 8 8 5 8 -3 21
-9 30 -12 12 -5 16 2 18 40 1 25 -2 43 -7 40 -5 -3 -18 1 -28 9 -10 8 -32 15
-47 15 -16 0 -36 4 -46 9 -10 6 -23 6 -32 0z"/>
<path d="M7450 1025 c-23 -24 -25 -60 -9 -115 14 -46 50 -59 80 -29 34 34 73
13 42 -23 -13 -14 -11 -17 19 -23 57 -12 98 -29 98 -41 0 -12 50 -37 66 -32
11 3 94 -52 94 -62 0 -9 53 -32 66 -29 5 1 30 -1 57 -4 121 -17 139 -18 132
-8 -4 7 5 11 22 12 28 1 28 1 -4 10 -29 8 -37 18 -35 40 1 4 -11 11 -26 17
-57 20 -99 32 -113 32 -8 0 -21 5 -29 10 -13 9 -13 11 0 20 12 7 9 14 -19 40
-19 16 -38 30 -43 30 -4 0 -8 -16 -8 -35 0 -32 -2 -35 -31 -35 -31 0 -31 1
-27 44 2 37 0 46 -15 50 -15 4 -18 11 -13 33 6 27 4 29 -56 47 -35 10 -85 28
-113 41 -73 33 -110 36 -135 10z m430 -215 c12 -8 11 -10 -7 -10 -13 0 -23 5
-23 10 0 13 11 13 30 0z"/>
<path d="M8380 1000 c-6 -4 5 -7 25 -8 19 -1 35 0 35 2 0 8 -49 13 -60 6z"/>
<path d="M9053 929 c-3 -11 -10 -16 -17 -12 -6 4 -5 -1 3 -10 12 -15 17 -16
34 -4 29 19 31 34 6 40 -15 4 -23 0 -26 -14z"/>
<path d="M7940 861 c0 -14 36 -41 55 -41 17 0 0 28 -25 42 -29 16 -30 16 -30
-1z"/>
<path d="M7190 848 c0 -2 -7 -24 -15 -50 -16 -55 -8 -66 28 -38 26 21 32 54
14 78 -8 10 -27 17 -27 10z"/>
<path d="M8145 840 c-3 -6 1 -7 9 -4 18 7 21 14 7 14 -6 0 -13 -4 -16 -10z"/>
<path d="M8092 808 c2 -6 10 -14 16 -16 7 -2 10 2 6 12 -7 18 -28 22 -22 4z"/>
<path d="M7070 761 c0 -20 13 -35 23 -25 7 8 -4 44 -14 44 -5 0 -9 -9 -9 -19z"/>
<path d="M8210 725 c-5 -13 -21 -26 -37 -30 -15 -4 -22 -10 -15 -12 6 -3 12
-11 12 -19 0 -8 -6 -11 -17 -7 -11 4 -14 3 -9 -5 9 -15 -6 -16 -21 -1 -8 8
-13 7 -19 -2 -4 -7 -3 -14 3 -16 6 -2 19 -10 29 -17 18 -14 18 -15 0 -35 -20
-22 -19 -23 29 -26 17 -2 40 -6 53 -10 12 -4 22 -3 22 2 0 5 -18 16 -40 23
-22 7 -40 17 -40 23 0 5 7 7 15 3 8 -3 26 -1 39 4 21 8 24 5 30 -21 4 -23 11
-29 32 -29 14 0 37 -9 50 -19 17 -13 34 -18 57 -14 38 6 37 5 42 31 2 13 -3
26 -13 32 -15 8 -16 9 -1 10 16 0 29 19 29 42 0 6 -8 8 -19 5 -15 -3 -17 0
-13 16 3 13 1 18 -6 13 -11 -6 -73 30 -80 47 -2 4 -10 7 -18 7 -8 0 -14 6 -14
13 0 7 -14 12 -36 13 -28 0 -38 -4 -44 -21z m147 -113 c-6 -12 -12 -20 -14
-18 -3 2 -4 6 -2 8 1 2 -3 13 -10 26 -16 31 -4 48 19 25 13 -14 15 -23 7 -41z"/>
<path d="M1101 696 c-31 -33 -21 -60 29 -76 31 -10 45 -10 69 0 28 11 31 17
31 56 l0 44 -53 0 c-44 0 -58 -4 -76 -24z m72 -15 c-5 -21 -43 -35 -56 -22
-15 15 5 41 33 41 23 0 27 -4 23 -19z"/>
<path d="M8896 534 c-16 -41 8 -61 34 -29 10 12 10 18 0 30 -16 19 -26 19 -34
-1z"/>
<path d="M5590 460 c0 -4 16 -15 35 -24 19 -9 51 -38 72 -64 21 -26 44 -51 52
-56 8 -5 35 -27 59 -50 l44 -40 -3 39 -4 40 67 -1 c37 0 87 -8 114 -18 55 -21
144 -100 144 -129 0 -28 -51 -74 -96 -86 -78 -22 -103 -15 -181 47 -83 66
-204 135 -307 175 -119 46 -252 38 -318 -21 -31 -26 -32 -72 -4 -132 35 -74
34 -90 -4 -90 -36 0 -38 -13 -8 -34 18 -13 51 -16 153 -16 l130 1 -25 22 c-14
12 -37 40 -52 62 -75 118 -86 177 -37 204 24 13 30 12 80 -14 30 -15 64 -36
77 -46 13 -10 55 -30 95 -45 84 -32 128 -58 220 -131 l68 -54 82 4 c75 3 159
25 181 47 5 5 14 38 21 73 13 67 8 87 -35 143 -44 58 -264 128 -394 125 -45
-1 -65 4 -80 17 -24 21 -146 64 -146 52z m-230 -197 c0 -18 -28 -53 -42 -53
-12 0 -10 27 4 50 16 24 38 26 38 3z m30 -113 c0 -6 9 -23 20 -38 22 -29 19
-62 -5 -62 -17 0 -24 20 -18 53 4 22 2 27 -16 27 -21 0 -27 10 -14 23 10 11
33 8 33 -3z"/>
<path d="M9312 408 c-28 -14 -25 -42 6 -46 19 -3 22 1 22 27 0 17 -1 31 -2 30
-2 0 -13 -5 -26 -11z"/>
<path d="M9288 313 c7 -3 16 -2 19 1 4 3 -2 6 -13 5 -11 0 -14 -3 -6 -6z"/>
<path d="M2360 206 c0 -30 87 -131 129 -150 40 -18 43 -19 59 -2 16 16 15 19
-20 48 -25 19 -38 38 -38 54 0 15 -6 24 -15 24 -8 0 -15 -4 -15 -10 0 -21 -30
-9 -47 20 -18 31 -53 41 -53 16z"/>
<path d="M4340 154 c-68 -13 -137 -73 -143 -126 -2 -20 3 -23 33 -26 33 -3 36
-1 35 25 0 23 6 29 40 39 22 7 79 13 126 13 75 1 88 -2 105 -20 34 -38 89 -59
151 -58 l58 1 -56 19 c-40 14 -65 31 -92 64 l-37 44 50 7 c78 10 62 27 -17 19
-74 -8 -113 -8 -183 -1 -25 2 -56 2 -70 0z"/>
</g>
</svg>
